<svg xmlns="http://www.w3.org/2000/svg" viewBox="0 0 40 40"><defs><style>.cls-1{fill:#fff;}</style></defs><g id="Layer_2" data-name="Layer 2"><g id="ELEMENTS"><rect width="40" height="40" rx="19.04"/><path class="cls-1" d="M17.16,26.31a3.66,3.66,0,0,0,1.5-.66,3.81,3.81,0,0,0,.95-1,4,4,0,0,0,.59-2.13,3.51,3.51,0,0,0-.52-1.95,3,3,0,0,0-1.54-1.18,3,3,0,0,0,1-.76,3,3,0,0,0,.62-2,3.44,3.44,0,0,0-.61-2,4.09,4.09,0,0,0-3.46-1.42H9.27V26.5h6A9.28,9.28,0,0,0,17.16,26.31ZM11.93,15.48h2.9a4.92,4.92,0,0,1,1.57.21,1.19,1.19,0,0,1,.72,1.23,1.26,1.26,0,0,1-.54,1.17,2.68,2.68,0,0,1-1.41.33H11.93Zm0,8.7V20.63h3.28a3.37,3.37,0,0,1,1.33.22,1.43,1.43,0,0,1,.85,1.43A1.68,1.68,0,0,1,16.51,24a3.23,3.23,0,0,1-1.34.23Z"/><path class="cls-1" d="M22.46,25.62a5.36,5.36,0,0,0,3.47,1.21,4.8,4.8,0,0,0,3.71-1.44,3.23,3.23,0,0,0,.95-1.78H28a2.09,2.09,0,0,1-.53.68,2.19,2.19,0,0,1-1.43.45,2.59,2.59,0,0,1-1.42-.37,2.36,2.36,0,0,1-1-2.08h7.18a12.63,12.63,0,0,0-.09-1.95,4.83,4.83,0,0,0-.78-2,4.07,4.07,0,0,0-1.71-1.46,5.54,5.54,0,0,0-2.31-.46,4.77,4.77,0,0,0-3.53,1.37A5.35,5.35,0,0,0,21,21.67,4.8,4.8,0,0,0,22.46,25.62Zm1.84-6.55a2,2,0,0,1,1.54-.57,2.31,2.31,0,0,1,1.53.53,2.19,2.19,0,0,1,.68,1.56H23.61A2.66,2.66,0,0,1,24.3,19.07Z"/><rect class="cls-1" x="22.77" y="13.94" width="5.79" height="1.34"/></g></g></svg>