<svg xmlns="http://www.w3.org/2000/svg" viewBox="0 0 799.3 377.04"><defs><style>.cls-1{fill:#5927e5;}.cls-2{fill:#b0a8b9;}</style></defs><g id="Layer_2" data-name="Layer 2"><g id="Layer_1-2" data-name="Layer 1"><path class="cls-1" d="M364.26,112.5l-187.5,93.75v-75a18.74,18.74,0,0,1,18.75-18.75Z"/><polygon class="cls-1" points="336.13 178.13 279.88 206.25 242.38 206.25 298.63 178.13 336.13 178.13"/><polygon class="cls-1" points="429.88 131.25 373.63 159.38 336.13 159.38 392.38 131.25 429.88 131.25"/><path class="cls-1" d="M551.76,140.62v18.76H513.21a75.11,75.11,0,0,0-33.54,7.91l-62.08,31a74.93,74.93,0,0,1-33.54,7.92H345.51l134.16-67.08a75,75,0,0,1,33.54-7.92h29.17A9.38,9.38,0,0,1,551.76,140.62Z"/><path class="cls-1" d="M439.26,93.75,626.76,0V75A18.75,18.75,0,0,1,608,93.75Z"/><polygon class="cls-1" points="467.38 28.13 523.63 0 561.13 0 504.88 28.13 467.38 28.13"/><polygon class="cls-1" points="373.63 75 429.88 46.88 467.38 46.88 411.13 75 373.63 75"/><path class="cls-1" d="M251.76,65.62V46.88H290.3A75.06,75.06,0,0,0,323.84,39l62.08-31A75,75,0,0,1,419.46,0H458L323.84,67.08A74.93,74.93,0,0,1,290.3,75H261.13A9.38,9.38,0,0,1,251.76,65.62Z"/><path class="cls-1" d="M0,376.07V319.19H22.74a28.56,28.56,0,0,1,14.37,3.54,24.92,24.92,0,0,1,9.72,9.91,33.76,33.76,0,0,1,0,30,24.92,24.92,0,0,1-9.72,9.91,28.56,28.56,0,0,1-14.37,3.54Zm11.65-10.73H22.17a16.84,16.84,0,0,0,8.68-2.15A14.55,14.55,0,0,0,36.57,357a22.7,22.7,0,0,0,0-18.81,14.65,14.65,0,0,0-5.72-6.14,16.93,16.93,0,0,0-8.68-2.15H11.65Z"/><path class="cls-1" d="M89.52,377q-10.67,0-16.66-6.74t-6-19.34V319.19H78.51v31.45q0,8,2.93,11.66a9.9,9.9,0,0,0,8.15,3.61,10,10,0,0,0,8.22-3.61q2.93-3.62,2.93-11.66V319.19h11.37V351q0,12.6-6,19.34T89.52,377Z"/><path class="cls-1" d="M131.84,376.07V319.19H156.3q9.44,0,14.19,4.07A13.4,13.4,0,0,1,175.25,334a15,15,0,0,1-1.94,7.76,13.15,13.15,0,0,1-5.32,5.08,16.3,16.3,0,0,1-7.69,1.79l1.36-3.42A18.56,18.56,0,0,1,170,347a13.53,13.53,0,0,1,5.68,5.2,15.8,15.8,0,0,1,2.08,8.37q0,7.31-5.08,11.42t-14.94,4.1Zm11.52-9.91h13.58q4.44,0,6.79-1.71a6.07,6.07,0,0,0,2.36-5.28c0-2.44-.78-4.23-2.36-5.36s-3.83-1.71-6.79-1.71H142.5v-9.59h12.37a10.75,10.75,0,0,0,6.47-1.66,5.92,5.92,0,0,0,2.25-5.08,5.79,5.79,0,0,0-2.25-5,11,11,0,0,0-6.47-1.62H143.36Z"/><path class="cls-1" d="M206.28,365.51h27.24v10.56H194.76V319.19h37.83v10.57H206.28ZM205.42,342h24.09v10.32H205.42Z"/><path class="cls-1" d="M251,376.07V319.19h9.58l21.31,40.14h-5.08l20.88-40.14h9.65v56.88H296.51l-.14-37.95h2.14L281.64,370h-5.15L259.4,338.12h2.36v37.95Z"/><path class="cls-1" d="M379.88,377A27.43,27.43,0,0,1,369,374.89a25,25,0,0,1-8.66-6.13,28.91,28.91,0,0,1-5.68-9.35,35,35,0,0,1,0-23.56,28.11,28.11,0,0,1,5.76-9.34,25.58,25.58,0,0,1,8.72-6.14,29.51,29.51,0,0,1,23,.37,24,24,0,0,1,9,7.31l-7.37,7.8a18.73,18.73,0,0,0-6-4.92,16.74,16.74,0,0,0-13.66-.24,15,15,0,0,0-5.18,3.78,16.87,16.87,0,0,0-3.36,5.77,23.36,23.36,0,0,0,0,14.66,16.77,16.77,0,0,0,3.36,5.81,15.63,15.63,0,0,0,5.15,3.82,15.27,15.27,0,0,0,6.54,1.38,17.77,17.77,0,0,0,6.68-1.3,19.45,19.45,0,0,0,6.33-4.3l6.58,9.5a28.32,28.32,0,0,1-9.51,5.4A33.06,33.06,0,0,1,379.88,377Zm9.66-8.93V346.74h10.58v23.07Z"/><path class="cls-1" d="M419.07,376.07V319.19h21.66a25.24,25.24,0,0,1,11.58,2.48,17.67,17.67,0,0,1,7.51,7.11,24.11,24.11,0,0,1,0,22,17.28,17.28,0,0,1-7.51,7,26,26,0,0,1-11.58,2.39h-15.3l5.29-5.68v21.61Zm11.65-20.15-5.29-6.26h14.66c3.52,0,6.19-.86,8-2.6a9.64,9.64,0,0,0,2.71-7.31c0-3.14-.9-5.57-2.71-7.27s-4.49-2.56-8-2.56H425.43l5.29-6.26ZM451,376.07l-12.59-20.64h12.44l12.59,20.64Z"/><path class="cls-1" d="M473.33,376.07l22.24-56.88H507l22.45,56.88H517.31l-18.38-50.21h4.65L485.2,376.07Zm11.23-12.19,2.93-10h25.88l3,10Z"/><path class="cls-1" d="M542.9,376.07V319.19h21.67a25.24,25.24,0,0,1,11.58,2.48,17.72,17.72,0,0,1,7.51,7.11,24.19,24.19,0,0,1,0,22,18.09,18.09,0,0,1-7.51,7.11,24.86,24.86,0,0,1-11.58,2.52h-15.3l5.29-5.93v21.61Zm11.66-20.15-5.29-6.26h14.65c3.53,0,6.2-.86,8-2.6a9.64,9.64,0,0,0,2.72-7.31c0-3.14-.91-5.57-2.72-7.27s-4.48-2.56-8-2.56H549.27l5.29-6.26Z"/><path class="cls-1" d="M615.05,376.07H603.39V319.19h11.66Zm23.52-23.32H614.12V341.62h24.45Zm-.86-33.56h11.58v56.88H637.71Z"/><path class="cls-1" d="M669.39,376.07V319.19H681v56.88Z"/><path class="cls-1" d="M725,377a26.85,26.85,0,0,1-10.76-2.15,25,25,0,0,1-8.61-6.13,28.76,28.76,0,0,1-5.69-9.35,35,35,0,0,1,0-23.56,28.51,28.51,0,0,1,5.72-9.34,25.5,25.5,0,0,1,8.65-6.14,28.25,28.25,0,0,1,22.56.41,23.36,23.36,0,0,1,8.87,7.51l-7.51,7.8a17.4,17.4,0,0,0-5.68-5,14.4,14.4,0,0,0-6.9-1.71,15.34,15.34,0,0,0-6.44,1.34,15,15,0,0,0-5.08,3.78,17.45,17.45,0,0,0-3.32,5.77,23.73,23.73,0,0,0,0,14.78,17.35,17.35,0,0,0,3.32,5.77,15,15,0,0,0,5.08,3.78,15.34,15.34,0,0,0,6.44,1.34,14.1,14.1,0,0,0,6.9-1.75,17.9,17.9,0,0,0,5.68-5.07l7.51,7.8a23.74,23.74,0,0,1-8.87,7.55A26.46,26.46,0,0,1,725,377Z"/><path class="cls-1" d="M778.14,377a36.55,36.55,0,0,1-11.55-1.83,25.44,25.44,0,0,1-8.9-4.75l3.93-9.91a26.11,26.11,0,0,0,7.58,4.26,25,25,0,0,0,8.94,1.67,15.78,15.78,0,0,0,5.54-.81,6.81,6.81,0,0,0,3.11-2.16,5.1,5.1,0,0,0,1-3.12,4.51,4.51,0,0,0-1.58-3.62,12.25,12.25,0,0,0-4.18-2.19q-2.61-.85-5.68-1.63c-2.05-.51-4.11-1.14-6.19-1.87a23.55,23.55,0,0,1-5.72-2.92,13.05,13.05,0,0,1-4.14-4.8,16,16,0,0,1-1.54-7.43,17.64,17.64,0,0,1,2.29-8.9,16.27,16.27,0,0,1,7-6.42,25.78,25.78,0,0,1,11.76-2.39,34.06,34.06,0,0,1,9.33,1.3,25.47,25.47,0,0,1,8,3.74l-3.64,9.91a27.29,27.29,0,0,0-6.94-3.29,23.4,23.4,0,0,0-6.86-1.1,14.72,14.72,0,0,0-5.51.85,6.46,6.46,0,0,0-3,2.32,5.79,5.79,0,0,0-1,3.25,4.62,4.62,0,0,0,1.57,3.66,11.05,11.05,0,0,0,4.15,2.15c1.71.51,3.62,1,5.72,1.54a57.86,57.86,0,0,1,6.22,1.91,26.15,26.15,0,0,1,5.65,2.89,13.11,13.11,0,0,1,4.18,4.71,15.31,15.31,0,0,1,1.61,7.35,17.2,17.2,0,0,1-2.32,8.78,16.87,16.87,0,0,1-7.05,6.42A25.59,25.59,0,0,1,778.14,377Z"/><rect class="cls-2" x="51.76" y="270" width="700" height="10" rx="4.54"/></g></g></svg>