<svg xmlns="http://www.w3.org/2000/svg" viewBox="0 0 450 206.25"><defs><style>.cls-1{fill:#5927e5;}</style></defs><g id="Layer_2" data-name="Layer 2"><g id="Layer_1-2" data-name="Layer 1"><path class="cls-1" d="M187.5,112.5,0,206.25v-75A18.74,18.74,0,0,1,18.75,112.5Z"/><polygon class="cls-1" points="159.38 178.13 103.13 206.25 65.63 206.25 121.88 178.13 159.38 178.13"/><polygon class="cls-1" points="253.13 131.25 196.88 159.38 159.38 159.38 215.63 131.25 253.13 131.25"/><path class="cls-1" d="M375,140.62v18.76H336.46a75.12,75.12,0,0,0-33.55,7.91l-62.07,31a75,75,0,0,1-33.55,7.92H168.75l134.16-67.08a75,75,0,0,1,33.55-7.92h29.16A9.38,9.38,0,0,1,375,140.62Z"/><path class="cls-1" d="M262.5,93.75,450,0V75a18.74,18.74,0,0,1-18.75,18.75Z"/><polygon class="cls-1" points="290.63 28.13 346.88 0 384.38 0 328.13 28.13 290.63 28.13"/><polygon class="cls-1" points="196.88 75 253.13 46.88 290.63 46.88 234.38 75 196.88 75"/><path class="cls-1" d="M75,65.62V46.88h38.54A75.13,75.13,0,0,0,147.09,39l62.07-31A75,75,0,0,1,242.71,0h38.54L147.09,67.08A75,75,0,0,1,113.54,75H84.38A9.38,9.38,0,0,1,75,65.62Z"/></g></g></svg>