<svg xmlns="http://www.w3.org/2000/svg" viewBox="0 0 1500 1149.62"><defs><style>.cls-1{fill:#1b1b1b;}</style></defs><g id="Layer_2" data-name="Layer 2"><g id="Layer_1-2" data-name="Layer 1"><path class="cls-1" d="M91.6,13.74,0,59.54V22.9a9.16,9.16,0,0,1,9.16-9.16Z"/><path class="cls-1" d="M210.69,7.41V36.64a4.59,4.59,0,0,1-4.58,4.58h-63L210.69,7.41M215.27,0,123.66,45.8h82.45a9.16,9.16,0,0,0,9.16-9.16V0Z"/><polygon class="cls-1" points="107.63 24.43 135.12 10.69 153.44 10.69 125.95 24.43 107.63 24.43"/><polygon class="cls-1" points="61.83 47.33 89.31 33.59 107.63 33.59 80.15 47.33 61.83 47.33"/><path class="cls-1" d="M377.86,139.69l91.61-45.8v36.64a9.17,9.17,0,0,1-9.16,9.16Z"/><path class="cls-1" d="M326.4,112.21,258.78,146V116.79a4.59,4.59,0,0,1,4.58-4.58h63m19.4-4.58H263.36a9.16,9.16,0,0,0-9.16,9.16v36.65l91.6-45.81Z"/><polygon class="cls-1" points="361.83 129.01 334.35 142.75 316.03 142.75 343.51 129.01 361.83 129.01"/><polygon class="cls-1" points="407.63 106.11 380.15 119.85 361.83 119.85 389.31 106.11 407.63 106.11"/><path class="cls-1" d="M208.4,109.92v9.16H189.57A36.71,36.71,0,0,0,173.18,123l-30.33,15.17A36.7,36.7,0,0,1,126.46,142H107.63l65.55-32.77a36.71,36.71,0,0,1,16.39-3.87h14.25A4.58,4.58,0,0,1,208.4,109.92Z"/><polygon class="cls-1" points="107.63 119.08 135.12 105.34 153.44 105.34 125.95 119.08 107.63 119.08"/><polygon class="cls-1" points="61.83 141.99 89.31 128.24 107.63 128.24 80.15 141.99 61.83 141.99"/><path class="cls-1" d="M6.87,137.4v-9.16H25.7a36.7,36.7,0,0,0,16.39-3.86l30.33-15.17a36.64,36.64,0,0,1,16.38-3.87h18.83L42.09,138.12A36.7,36.7,0,0,1,25.7,142H11.45A4.58,4.58,0,0,1,6.87,137.4Z"/><path class="cls-1" d="M462.6,16v9.16H443.76a36.7,36.7,0,0,0-16.38,3.87L397.05,44.22a36.58,36.58,0,0,1-16.39,3.87H361.83l65.55-32.77a36.57,36.57,0,0,1,16.38-3.87H458A4.59,4.59,0,0,1,462.6,16Z"/><polygon class="cls-1" points="361.83 25.19 389.31 11.45 407.63 11.45 380.15 25.19 361.83 25.19"/><polygon class="cls-1" points="316.03 48.09 343.51 34.35 361.83 34.35 334.35 48.09 316.03 48.09"/><path class="cls-1" d="M261.07,43.51V34.35H279.9a36.58,36.58,0,0,0,16.39-3.87l30.32-15.16A36.58,36.58,0,0,1,343,11.45h18.83L296.29,44.22a36.58,36.58,0,0,1-16.39,3.87H265.65A4.58,4.58,0,0,1,261.07,43.51Z"/><path class="cls-1" d="M606.87,13.74l-91.6,45.8V22.9a9.16,9.16,0,0,1,9.16-9.16Z"/><path class="cls-1" d="M726,7.41V36.64a4.58,4.58,0,0,1-4.58,4.58h-63L726,7.41M730.53,0l-91.6,45.8h82.44a9.16,9.16,0,0,0,9.16-9.16V0Z"/><polygon class="cls-1" points="622.9 24.43 650.38 10.69 668.7 10.69 641.22 24.43 622.9 24.43"/><polygon class="cls-1" points="577.1 47.33 604.58 33.59 622.9 33.59 595.42 47.33 577.1 47.33"/><path class="cls-1" d="M893.13,139.69l91.6-45.8v36.64a9.16,9.16,0,0,1-9.16,9.16Z"/><path class="cls-1" d="M841.67,112.21,774.05,146V116.79a4.59,4.59,0,0,1,4.58-4.58h63m19.4-4.58H778.63a9.16,9.16,0,0,0-9.16,9.16v36.65l91.6-45.81Z"/><polygon class="cls-1" points="877.1 129.01 849.62 142.75 831.3 142.75 858.78 129.01 877.1 129.01"/><polygon class="cls-1" points="922.9 106.11 895.42 119.85 877.1 119.85 904.58 106.11 922.9 106.11"/><path class="cls-1" d="M723.66,109.92v9.16H704.83A36.64,36.64,0,0,0,688.45,123l-30.33,15.17A36.7,36.7,0,0,1,641.73,142H622.9l65.55-32.77a36.64,36.64,0,0,1,16.38-3.87h14.25A4.58,4.58,0,0,1,723.66,109.92Z"/><polygon class="cls-1" points="622.9 119.08 650.38 105.34 668.7 105.34 641.22 119.08 622.9 119.08"/><polygon class="cls-1" points="577.1 141.99 604.58 128.24 622.9 128.24 595.42 141.99 577.1 141.99"/><path class="cls-1" d="M522.14,137.4v-9.16H541a36.63,36.63,0,0,0,16.38-3.86l30.33-15.17a36.71,36.71,0,0,1,16.39-3.87H622.9l-65.55,32.78A36.63,36.63,0,0,1,541,142H526.72A4.58,4.58,0,0,1,522.14,137.4Z"/><path class="cls-1" d="M977.86,16v9.16H959a36.64,36.64,0,0,0-16.38,3.87L912.32,44.22a36.58,36.58,0,0,1-16.39,3.87H877.1l65.55-32.77A36.51,36.51,0,0,1,959,11.45h14.25A4.58,4.58,0,0,1,977.86,16Z"/><polygon class="cls-1" points="877.1 25.19 904.58 11.45 922.9 11.45 895.42 25.19 877.1 25.19"/><polygon class="cls-1" points="831.3 48.09 858.78 34.35 877.1 34.35 849.62 48.09 831.3 48.09"/><path class="cls-1" d="M776.34,43.51V34.35h18.83a36.51,36.51,0,0,0,16.38-3.87l30.33-15.16a36.58,36.58,0,0,1,16.39-3.87H877.1L811.55,44.22a36.51,36.51,0,0,1-16.38,3.87H780.92A4.58,4.58,0,0,1,776.34,43.51Z"/><path class="cls-1" d="M1122.14,13.74l-91.61,45.8V22.9a9.17,9.17,0,0,1,9.16-9.16Z"/><path class="cls-1" d="M1241.22,7.41V36.64a4.58,4.58,0,0,1-4.58,4.58h-63l67.62-33.81M1245.8,0l-91.6,45.8h82.44a9.16,9.16,0,0,0,9.16-9.16V0Z"/><polygon class="cls-1" points="1138.17 24.43 1165.65 10.69 1183.97 10.69 1156.49 24.43 1138.17 24.43"/><polygon class="cls-1" points="1092.37 47.33 1119.85 33.59 1138.17 33.59 1110.69 47.33 1092.37 47.33"/><path class="cls-1" d="M1408.4,139.69l91.6-45.8v36.64a9.16,9.16,0,0,1-9.16,9.16Z"/><path class="cls-1" d="M1356.93,112.21,1289.31,146V116.79a4.59,4.59,0,0,1,4.58-4.58h63m19.41-4.58h-82.45a9.16,9.16,0,0,0-9.16,9.16v36.65l91.61-45.81Z"/><polygon class="cls-1" points="1392.37 129.01 1364.88 142.75 1346.57 142.75 1374.05 129.01 1392.37 129.01"/><polygon class="cls-1" points="1438.17 106.11 1410.69 119.85 1392.37 119.85 1419.85 106.11 1438.17 106.11"/><path class="cls-1" d="M1238.93,109.92v9.16H1220.1a36.71,36.71,0,0,0-16.39,3.87l-30.32,15.17A36.7,36.7,0,0,1,1157,142h-18.83l65.54-32.77a36.71,36.71,0,0,1,16.39-3.87h14.25A4.58,4.58,0,0,1,1238.93,109.92Z"/><polygon class="cls-1" points="1138.17 119.08 1165.65 105.34 1183.97 105.34 1156.49 119.08 1138.17 119.08"/><polygon class="cls-1" points="1092.37 141.99 1119.85 128.24 1138.17 128.24 1110.69 141.99 1092.37 141.99"/><path class="cls-1" d="M1037.4,137.4v-9.16h18.84a36.69,36.69,0,0,0,16.38-3.86L1103,109.21a36.71,36.71,0,0,1,16.39-3.87h18.83l-65.55,32.78a36.69,36.69,0,0,1-16.38,3.86H1042A4.59,4.59,0,0,1,1037.4,137.4Z"/><path class="cls-1" d="M1493.13,16v9.16H1474.3a36.71,36.71,0,0,0-16.39,3.87l-30.33,15.16a36.51,36.51,0,0,1-16.38,3.87h-18.83l65.54-32.77a36.58,36.58,0,0,1,16.39-3.87h14.25A4.58,4.58,0,0,1,1493.13,16Z"/><polygon class="cls-1" points="1392.37 25.19 1419.85 11.45 1438.17 11.45 1410.69 25.19 1392.37 25.19"/><polygon class="cls-1" points="1346.57 48.09 1374.05 34.35 1392.37 34.35 1364.88 48.09 1346.57 48.09"/><path class="cls-1" d="M1291.6,43.51V34.35h18.83a36.58,36.58,0,0,0,16.39-3.87l30.33-15.16a36.58,36.58,0,0,1,16.39-3.87h18.83l-65.55,32.77a36.58,36.58,0,0,1-16.39,3.87h-14.25A4.58,4.58,0,0,1,1291.6,43.51Z"/><path class="cls-1" d="M91.6,213,0,258.78V222.14A9.16,9.16,0,0,1,9.16,213Z"/><path class="cls-1" d="M210.69,206.65v29.23a4.59,4.59,0,0,1-4.58,4.58h-63l67.62-33.81m4.58-7.41L123.66,245h82.45a9.16,9.16,0,0,0,9.16-9.16V199.24Z"/><polygon class="cls-1" points="107.63 223.66 135.12 209.92 153.44 209.92 125.95 223.66 107.63 223.66"/><polygon class="cls-1" points="61.83 246.56 89.31 232.82 107.63 232.82 80.15 246.56 61.83 246.56"/><path class="cls-1" d="M377.86,338.93l91.61-45.8v36.64a9.17,9.17,0,0,1-9.16,9.16Z"/><path class="cls-1" d="M326.4,311.45l-67.62,33.81V316a4.59,4.59,0,0,1,4.58-4.58h63m19.4-4.58H263.36A9.16,9.16,0,0,0,254.2,316v36.64l91.6-45.8Z"/><polygon class="cls-1" points="361.83 328.24 334.35 341.99 316.03 341.99 343.51 328.24 361.83 328.24"/><polygon class="cls-1" points="407.63 305.34 380.15 319.08 361.83 319.08 389.31 305.34 407.63 305.34"/><path class="cls-1" d="M208.4,309.16v9.16H189.57a36.71,36.71,0,0,0-16.39,3.87l-30.33,15.16a36.58,36.58,0,0,1-16.39,3.87H107.63l65.55-32.77a36.58,36.58,0,0,1,16.39-3.87h14.25A4.58,4.58,0,0,1,208.4,309.16Z"/><polygon class="cls-1" points="107.63 318.32 135.12 304.58 153.44 304.58 125.95 318.32 107.63 318.32"/><polygon class="cls-1" points="61.83 341.22 89.31 327.48 107.63 327.48 80.15 341.22 61.83 341.22"/><path class="cls-1" d="M6.87,336.64v-9.16H25.7a36.58,36.58,0,0,0,16.39-3.87l30.33-15.16a36.51,36.51,0,0,1,16.38-3.87h18.83L42.09,337.35a36.58,36.58,0,0,1-16.39,3.87H11.45A4.58,4.58,0,0,1,6.87,336.64Z"/><path class="cls-1" d="M462.6,215.27v9.16H443.76a36.57,36.57,0,0,0-16.38,3.87l-30.33,15.16a36.71,36.71,0,0,1-16.39,3.87H361.83l65.55-32.77a36.57,36.57,0,0,1,16.38-3.87H458A4.59,4.59,0,0,1,462.6,215.27Z"/><polygon class="cls-1" points="361.83 224.43 389.31 210.69 407.63 210.69 380.15 224.43 361.83 224.43"/><polygon class="cls-1" points="316.03 247.33 343.51 233.59 361.83 233.59 334.35 247.33 316.03 247.33"/><path class="cls-1" d="M261.07,242.75v-9.16H279.9a36.71,36.71,0,0,0,16.39-3.87l30.32-15.16A36.58,36.58,0,0,1,343,210.69h18.83l-65.54,32.77a36.71,36.71,0,0,1-16.39,3.87H265.65A4.58,4.58,0,0,1,261.07,242.75Z"/><path class="cls-1" d="M606.87,213l-91.6,45.8V222.14a9.16,9.16,0,0,1,9.16-9.16Z"/><path class="cls-1" d="M726,206.65v29.23a4.59,4.59,0,0,1-4.58,4.58h-63L726,206.65m4.58-7.41L638.93,245h82.44a9.16,9.16,0,0,0,9.16-9.16V199.24Z"/><polygon class="cls-1" points="622.9 223.66 650.38 209.92 668.7 209.92 641.22 223.66 622.9 223.66"/><polygon class="cls-1" points="577.1 246.56 604.58 232.82 622.9 232.82 595.42 246.56 577.1 246.56"/><path class="cls-1" d="M893.13,338.93l91.6-45.8v36.64a9.16,9.16,0,0,1-9.16,9.16Z"/><path class="cls-1" d="M841.67,311.45l-67.62,33.81V316a4.59,4.59,0,0,1,4.58-4.58h63m19.4-4.58H778.63a9.16,9.16,0,0,0-9.16,9.16v36.64l91.6-45.8Z"/><polygon class="cls-1" points="877.1 328.24 849.62 341.99 831.3 341.99 858.78 328.24 877.1 328.24"/><polygon class="cls-1" points="922.9 305.34 895.42 319.08 877.1 319.08 904.58 305.34 922.9 305.34"/><path class="cls-1" d="M723.66,309.16v9.16H704.83a36.64,36.64,0,0,0-16.38,3.87l-30.33,15.16a36.58,36.58,0,0,1-16.39,3.87H622.9l65.55-32.77a36.51,36.51,0,0,1,16.38-3.87h14.25A4.58,4.58,0,0,1,723.66,309.16Z"/><polygon class="cls-1" points="622.9 318.32 650.38 304.58 668.7 304.58 641.22 318.32 622.9 318.32"/><polygon class="cls-1" points="577.1 341.22 604.58 327.48 622.9 327.48 595.42 341.22 577.1 341.22"/><path class="cls-1" d="M522.14,336.64v-9.16H541a36.51,36.51,0,0,0,16.38-3.87l30.33-15.16a36.58,36.58,0,0,1,16.39-3.87H622.9l-65.55,32.77A36.51,36.51,0,0,1,541,341.22H526.72A4.58,4.58,0,0,1,522.14,336.64Z"/><path class="cls-1" d="M977.86,215.27v9.16H959a36.51,36.51,0,0,0-16.38,3.87l-30.33,15.16a36.71,36.71,0,0,1-16.39,3.87H877.1l65.55-32.77A36.51,36.51,0,0,1,959,210.69h14.25A4.58,4.58,0,0,1,977.86,215.27Z"/><polygon class="cls-1" points="877.1 224.43 904.58 210.69 922.9 210.69 895.42 224.43 877.1 224.43"/><polygon class="cls-1" points="831.3 247.33 858.78 233.59 877.1 233.59 849.62 247.33 831.3 247.33"/><path class="cls-1" d="M776.34,242.75v-9.16h18.83a36.64,36.64,0,0,0,16.38-3.87l30.33-15.16a36.58,36.58,0,0,1,16.39-3.87H877.1l-65.55,32.77a36.64,36.64,0,0,1-16.38,3.87H780.92A4.58,4.58,0,0,1,776.34,242.75Z"/><path class="cls-1" d="M1122.14,213l-91.61,45.8V222.14a9.17,9.17,0,0,1,9.16-9.16Z"/><path class="cls-1" d="M1241.22,206.65v29.23a4.59,4.59,0,0,1-4.58,4.58h-63l67.62-33.81m4.58-7.41L1154.2,245h82.44a9.16,9.16,0,0,0,9.16-9.16V199.24Z"/><polygon class="cls-1" points="1138.17 223.66 1165.65 209.92 1183.97 209.92 1156.49 223.66 1138.17 223.66"/><polygon class="cls-1" points="1092.37 246.56 1119.85 232.82 1138.17 232.82 1110.69 246.56 1092.37 246.56"/><path class="cls-1" d="M1408.4,338.93l91.6-45.8v36.64a9.16,9.16,0,0,1-9.16,9.16Z"/><path class="cls-1" d="M1356.93,311.45l-67.62,33.81V316a4.59,4.59,0,0,1,4.58-4.58h63m19.41-4.58h-82.45a9.16,9.16,0,0,0-9.16,9.16v36.64l91.61-45.8Z"/><polygon class="cls-1" points="1392.37 328.24 1364.88 341.99 1346.57 341.99 1374.05 328.24 1392.37 328.24"/><polygon class="cls-1" points="1438.17 305.34 1410.69 319.08 1392.37 319.08 1419.85 305.34 1438.17 305.34"/><path class="cls-1" d="M1238.93,309.16v9.16H1220.1a36.71,36.71,0,0,0-16.39,3.87l-30.32,15.16a36.58,36.58,0,0,1-16.39,3.87h-18.83l65.54-32.77a36.58,36.58,0,0,1,16.39-3.87h14.25A4.58,4.58,0,0,1,1238.93,309.16Z"/><polygon class="cls-1" points="1138.17 318.32 1165.65 304.58 1183.97 304.58 1156.49 318.32 1138.17 318.32"/><polygon class="cls-1" points="1092.37 341.22 1119.85 327.48 1138.17 327.48 1110.69 341.22 1092.37 341.22"/><path class="cls-1" d="M1037.4,336.64v-9.16h18.84a36.57,36.57,0,0,0,16.38-3.87L1103,308.45a36.58,36.58,0,0,1,16.39-3.87h18.83l-65.55,32.77a36.57,36.57,0,0,1-16.38,3.87H1042A4.59,4.59,0,0,1,1037.4,336.64Z"/><path class="cls-1" d="M1493.13,215.27v9.16H1474.3a36.58,36.58,0,0,0-16.39,3.87l-30.33,15.16a36.64,36.64,0,0,1-16.38,3.87h-18.83l65.54-32.77a36.58,36.58,0,0,1,16.39-3.87h14.25A4.58,4.58,0,0,1,1493.13,215.27Z"/><polygon class="cls-1" points="1392.37 224.43 1419.85 210.69 1438.17 210.69 1410.69 224.43 1392.37 224.43"/><polygon class="cls-1" points="1346.57 247.33 1374.05 233.59 1392.37 233.59 1364.88 247.33 1346.57 247.33"/><path class="cls-1" d="M1291.6,242.75v-9.16h18.83a36.71,36.71,0,0,0,16.39-3.87l30.33-15.16a36.58,36.58,0,0,1,16.39-3.87h18.83l-65.55,32.77a36.71,36.71,0,0,1-16.39,3.87h-14.25A4.58,4.58,0,0,1,1291.6,242.75Z"/><path class="cls-1" d="M91.6,412.21,0,458V421.37a9.16,9.16,0,0,1,9.16-9.16Z"/><path class="cls-1" d="M210.69,405.88v29.23a4.59,4.59,0,0,1-4.58,4.58h-63l67.62-33.81m4.58-7.41-91.61,45.8h82.45a9.16,9.16,0,0,0,9.16-9.16V398.47Z"/><polygon class="cls-1" points="107.63 422.9 135.12 409.16 153.44 409.16 125.95 422.9 107.63 422.9"/><polygon class="cls-1" points="61.83 445.8 89.31 432.06 107.63 432.06 80.15 445.8 61.83 445.8"/><path class="cls-1" d="M377.86,538.17l91.61-45.8V529a9.17,9.17,0,0,1-9.16,9.16Z"/><path class="cls-1" d="M326.4,510.69,258.78,544.5V515.27a4.58,4.58,0,0,1,4.58-4.58h63m19.4-4.58H263.36a9.16,9.16,0,0,0-9.16,9.16v36.64l91.6-45.8Z"/><polygon class="cls-1" points="361.83 527.48 334.35 541.22 316.03 541.22 343.51 527.48 361.83 527.48"/><polygon class="cls-1" points="407.63 504.58 380.15 518.32 361.83 518.32 389.31 504.58 407.63 504.58"/><path class="cls-1" d="M208.4,508.4v9.16H189.57a36.58,36.58,0,0,0-16.39,3.87l-30.33,15.16a36.71,36.71,0,0,1-16.39,3.87H107.63l65.55-32.77a36.58,36.58,0,0,1,16.39-3.87h14.25A4.58,4.58,0,0,1,208.4,508.4Z"/><polygon class="cls-1" points="107.63 517.56 135.12 503.82 153.44 503.82 125.95 517.56 107.63 517.56"/><polygon class="cls-1" points="61.83 540.46 89.31 526.72 107.63 526.72 80.15 540.46 61.83 540.46"/><path class="cls-1" d="M6.87,535.88v-9.16H25.7a36.71,36.71,0,0,0,16.39-3.87l30.33-15.16a36.51,36.51,0,0,1,16.38-3.87h18.83L42.09,536.59a36.71,36.71,0,0,1-16.39,3.87H11.45A4.58,4.58,0,0,1,6.87,535.88Z"/><path class="cls-1" d="M462.6,414.5v9.16H443.76a36.7,36.7,0,0,0-16.38,3.87L397.05,442.7a36.7,36.7,0,0,1-16.39,3.86H361.83l65.55-32.77a36.7,36.7,0,0,1,16.38-3.87H458A4.59,4.59,0,0,1,462.6,414.5Z"/><polygon class="cls-1" points="361.83 423.66 389.31 409.92 407.63 409.92 380.15 423.66 361.83 423.66"/><polygon class="cls-1" points="316.03 446.56 343.51 432.82 361.83 432.82 334.35 446.56 316.03 446.56"/><path class="cls-1" d="M261.07,442v-9.16H279.9A36.7,36.7,0,0,0,296.29,429l30.32-15.17A36.71,36.71,0,0,1,343,409.92h18.83L296.29,442.7a36.7,36.7,0,0,1-16.39,3.86H265.65A4.58,4.58,0,0,1,261.07,442Z"/><path class="cls-1" d="M606.87,412.21,515.27,458V421.37a9.16,9.16,0,0,1,9.16-9.16Z"/><path class="cls-1" d="M726,405.88v29.23a4.58,4.58,0,0,1-4.58,4.58h-63L726,405.88m4.58-7.41-91.6,45.8h82.44a9.16,9.16,0,0,0,9.16-9.16V398.47Z"/><polygon class="cls-1" points="622.9 422.9 650.38 409.16 668.7 409.16 641.22 422.9 622.9 422.9"/><polygon class="cls-1" points="577.1 445.8 604.58 432.06 622.9 432.06 595.42 445.8 577.1 445.8"/><path class="cls-1" d="M893.13,538.17l91.6-45.8V529a9.16,9.16,0,0,1-9.16,9.16Z"/><path class="cls-1" d="M841.67,510.69,774.05,544.5V515.27a4.58,4.58,0,0,1,4.58-4.58h63m19.4-4.58H778.63a9.16,9.16,0,0,0-9.16,9.16v36.64l91.6-45.8Z"/><polygon class="cls-1" points="877.1 527.48 849.62 541.22 831.3 541.22 858.78 527.48 877.1 527.48"/><polygon class="cls-1" points="922.9 504.58 895.42 518.32 877.1 518.32 904.58 504.58 922.9 504.58"/><path class="cls-1" d="M723.66,508.4v9.16H704.83a36.51,36.51,0,0,0-16.38,3.87l-30.33,15.16a36.71,36.71,0,0,1-16.39,3.87H622.9l65.55-32.77a36.51,36.51,0,0,1,16.38-3.87h14.25A4.58,4.58,0,0,1,723.66,508.4Z"/><polygon class="cls-1" points="622.9 517.56 650.38 503.82 668.7 503.82 641.22 517.56 622.9 517.56"/><polygon class="cls-1" points="577.1 540.46 604.58 526.72 622.9 526.72 595.42 540.46 577.1 540.46"/><path class="cls-1" d="M522.14,535.88v-9.16H541a36.64,36.64,0,0,0,16.38-3.87l30.33-15.16a36.58,36.58,0,0,1,16.39-3.87H622.9l-65.55,32.77A36.64,36.64,0,0,1,541,540.46H526.72A4.58,4.58,0,0,1,522.14,535.88Z"/><path class="cls-1" d="M977.86,414.5v9.16H959a36.64,36.64,0,0,0-16.38,3.87L912.32,442.7a36.7,36.7,0,0,1-16.39,3.86H877.1l65.55-32.77A36.64,36.64,0,0,1,959,409.92h14.25A4.58,4.58,0,0,1,977.86,414.5Z"/><polygon class="cls-1" points="877.1 423.66 904.58 409.92 922.9 409.92 895.42 423.66 877.1 423.66"/><polygon class="cls-1" points="831.3 446.56 858.78 432.82 877.1 432.82 849.62 446.56 831.3 446.56"/><path class="cls-1" d="M776.34,442v-9.16h18.83A36.63,36.63,0,0,0,811.55,429l30.33-15.17a36.71,36.71,0,0,1,16.39-3.87H877.1L811.55,442.7a36.63,36.63,0,0,1-16.38,3.86H780.92A4.58,4.58,0,0,1,776.34,442Z"/><path class="cls-1" d="M1122.14,412.21,1030.53,458V421.37a9.17,9.17,0,0,1,9.16-9.16Z"/><path class="cls-1" d="M1241.22,405.88v29.23a4.58,4.58,0,0,1-4.58,4.58h-63l67.62-33.81m4.58-7.41-91.6,45.8h82.44a9.16,9.16,0,0,0,9.16-9.16V398.47Z"/><polygon class="cls-1" points="1138.17 422.9 1165.65 409.16 1183.97 409.16 1156.49 422.9 1138.17 422.9"/><polygon class="cls-1" points="1092.37 445.8 1119.85 432.06 1138.17 432.06 1110.69 445.8 1092.37 445.8"/><path class="cls-1" d="M1408.4,538.17l91.6-45.8V529a9.16,9.16,0,0,1-9.16,9.16Z"/><path class="cls-1" d="M1356.93,510.69l-67.62,33.81V515.27a4.59,4.59,0,0,1,4.58-4.58h63m19.41-4.58h-82.45a9.16,9.16,0,0,0-9.16,9.16v36.64l91.61-45.8Z"/><polygon class="cls-1" points="1392.37 527.48 1364.88 541.22 1346.57 541.22 1374.05 527.48 1392.37 527.48"/><polygon class="cls-1" points="1438.17 504.58 1410.69 518.32 1392.37 518.32 1419.85 504.58 1438.17 504.58"/><path class="cls-1" d="M1238.93,508.4v9.16H1220.1a36.58,36.58,0,0,0-16.39,3.87l-30.32,15.16a36.71,36.71,0,0,1-16.39,3.87h-18.83l65.54-32.77a36.58,36.58,0,0,1,16.39-3.87h14.25A4.58,4.58,0,0,1,1238.93,508.4Z"/><polygon class="cls-1" points="1138.17 517.56 1165.65 503.82 1183.97 503.82 1156.49 517.56 1138.17 517.56"/><polygon class="cls-1" points="1092.37 540.46 1119.85 526.72 1138.17 526.72 1110.69 540.46 1092.37 540.46"/><path class="cls-1" d="M1037.4,535.88v-9.16h18.84a36.7,36.7,0,0,0,16.38-3.87L1103,507.69a36.58,36.58,0,0,1,16.39-3.87h18.83l-65.55,32.77a36.7,36.7,0,0,1-16.38,3.87H1042A4.59,4.59,0,0,1,1037.4,535.88Z"/><path class="cls-1" d="M1493.13,414.5v9.16H1474.3a36.71,36.71,0,0,0-16.39,3.87l-30.33,15.17a36.63,36.63,0,0,1-16.38,3.86h-18.83l65.54-32.77a36.71,36.71,0,0,1,16.39-3.87h14.25A4.58,4.58,0,0,1,1493.13,414.5Z"/><polygon class="cls-1" points="1392.37 423.66 1419.85 409.92 1438.17 409.92 1410.69 423.66 1392.37 423.66"/><polygon class="cls-1" points="1346.57 446.56 1374.05 432.82 1392.37 432.82 1364.88 446.56 1346.57 446.56"/><path class="cls-1" d="M1291.6,442v-9.16h18.83a36.7,36.7,0,0,0,16.39-3.86l30.33-15.17a36.71,36.71,0,0,1,16.39-3.87h18.83l-65.55,32.78a36.7,36.7,0,0,1-16.39,3.86h-14.25A4.58,4.58,0,0,1,1291.6,442Z"/><path class="cls-1" d="M91.6,611.45,0,657.25V620.61a9.16,9.16,0,0,1,9.16-9.16Z"/><path class="cls-1" d="M210.69,605.12v29.23a4.59,4.59,0,0,1-4.58,4.58h-63l67.62-33.81m4.58-7.41-91.61,45.8h82.45a9.16,9.16,0,0,0,9.16-9.16V597.71Z"/><polygon class="cls-1" points="107.63 622.14 135.12 608.4 153.44 608.4 125.95 622.14 107.63 622.14"/><polygon class="cls-1" points="61.83 645.04 89.31 631.3 107.63 631.3 80.15 645.04 61.83 645.04"/><path class="cls-1" d="M377.86,737.4l91.61-45.8v36.64a9.17,9.17,0,0,1-9.16,9.16Z"/><path class="cls-1" d="M326.4,709.92l-67.62,33.81V714.5a4.59,4.59,0,0,1,4.58-4.58h63m19.4-4.58H263.36a9.16,9.16,0,0,0-9.16,9.16v36.65l91.6-45.81Z"/><polygon class="cls-1" points="361.83 726.72 334.35 740.46 316.03 740.46 343.51 726.72 361.83 726.72"/><polygon class="cls-1" points="407.63 703.82 380.15 717.56 361.83 717.56 389.31 703.82 407.63 703.82"/><path class="cls-1" d="M208.4,707.63v9.16H189.57a36.71,36.71,0,0,0-16.39,3.87l-30.33,15.17a36.7,36.7,0,0,1-16.39,3.86H107.63l65.55-32.77a36.71,36.71,0,0,1,16.39-3.87h14.25A4.58,4.58,0,0,1,208.4,707.63Z"/><polygon class="cls-1" points="107.63 716.79 135.12 703.05 153.44 703.05 125.95 716.79 107.63 716.79"/><polygon class="cls-1" points="61.83 739.7 89.31 725.95 107.63 725.95 80.15 739.7 61.83 739.7"/><path class="cls-1" d="M6.87,735.11V726H25.7a36.7,36.7,0,0,0,16.39-3.86l30.33-15.17a36.64,36.64,0,0,1,16.38-3.87h18.83L42.09,735.83a36.7,36.7,0,0,1-16.39,3.86H11.45A4.58,4.58,0,0,1,6.87,735.11Z"/><path class="cls-1" d="M462.6,613.74v9.16H443.76a36.7,36.7,0,0,0-16.38,3.87l-30.33,15.16a36.58,36.58,0,0,1-16.39,3.87H361.83L427.38,613a36.57,36.57,0,0,1,16.38-3.87H458A4.59,4.59,0,0,1,462.6,613.74Z"/><polygon class="cls-1" points="361.83 622.9 389.31 609.16 407.63 609.16 380.15 622.9 361.83 622.9"/><polygon class="cls-1" points="316.03 645.8 343.51 632.06 361.83 632.06 334.35 645.8 316.03 645.8"/><path class="cls-1" d="M261.07,641.22v-9.16H279.9a36.58,36.58,0,0,0,16.39-3.87L326.61,613A36.58,36.58,0,0,1,343,609.16h18.83l-65.54,32.77a36.58,36.58,0,0,1-16.39,3.87H265.65A4.58,4.58,0,0,1,261.07,641.22Z"/><path class="cls-1" d="M606.87,611.45l-91.6,45.8V620.61a9.16,9.16,0,0,1,9.16-9.16Z"/><path class="cls-1" d="M726,605.12v29.23a4.58,4.58,0,0,1-4.58,4.58h-63L726,605.12m4.58-7.41-91.6,45.8h82.44a9.16,9.16,0,0,0,9.16-9.16V597.71Z"/><polygon class="cls-1" points="622.9 622.14 650.38 608.4 668.7 608.4 641.22 622.14 622.9 622.14"/><polygon class="cls-1" points="577.1 645.04 604.58 631.3 622.9 631.3 595.42 645.04 577.1 645.04"/><path class="cls-1" d="M893.13,737.4l91.6-45.8v36.64a9.16,9.16,0,0,1-9.16,9.16Z"/><path class="cls-1" d="M841.67,709.92l-67.62,33.81V714.5a4.59,4.59,0,0,1,4.58-4.58h63m19.4-4.58H778.63a9.16,9.16,0,0,0-9.16,9.16v36.65l91.6-45.81Z"/><polygon class="cls-1" points="877.1 726.72 849.62 740.46 831.3 740.46 858.78 726.72 877.1 726.72"/><polygon class="cls-1" points="922.9 703.82 895.42 717.56 877.1 717.56 904.58 703.82 922.9 703.82"/><path class="cls-1" d="M723.66,707.63v9.16H704.83a36.64,36.64,0,0,0-16.38,3.87l-30.33,15.17a36.7,36.7,0,0,1-16.39,3.86H622.9l65.55-32.77a36.64,36.64,0,0,1,16.38-3.87h14.25A4.58,4.58,0,0,1,723.66,707.63Z"/><polygon class="cls-1" points="622.9 716.79 650.38 703.05 668.7 703.05 641.22 716.79 622.9 716.79"/><polygon class="cls-1" points="577.1 739.7 604.58 725.95 622.9 725.95 595.42 739.7 577.1 739.7"/><path class="cls-1" d="M522.14,735.11V726H541a36.63,36.63,0,0,0,16.38-3.86l30.33-15.17a36.71,36.71,0,0,1,16.39-3.87H622.9l-65.55,32.78A36.63,36.63,0,0,1,541,739.69H526.72A4.58,4.58,0,0,1,522.14,735.11Z"/><path class="cls-1" d="M977.86,613.74v9.16H959a36.64,36.64,0,0,0-16.38,3.87l-30.33,15.16a36.58,36.58,0,0,1-16.39,3.87H877.1L942.65,613A36.51,36.51,0,0,1,959,609.16h14.25A4.58,4.58,0,0,1,977.86,613.74Z"/><polygon class="cls-1" points="877.1 622.9 904.58 609.16 922.9 609.16 895.42 622.9 877.1 622.9"/><polygon class="cls-1" points="831.3 645.8 858.78 632.06 877.1 632.06 849.62 645.8 831.3 645.8"/><path class="cls-1" d="M776.34,641.22v-9.16h18.83a36.51,36.51,0,0,0,16.38-3.87L841.88,613a36.58,36.58,0,0,1,16.39-3.87H877.1l-65.55,32.77a36.51,36.51,0,0,1-16.38,3.87H780.92A4.58,4.58,0,0,1,776.34,641.22Z"/><path class="cls-1" d="M1122.14,611.45l-91.61,45.8V620.61a9.17,9.17,0,0,1,9.16-9.16Z"/><path class="cls-1" d="M1241.22,605.12v29.23a4.58,4.58,0,0,1-4.58,4.58h-63l67.62-33.81m4.58-7.41-91.6,45.8h82.44a9.16,9.16,0,0,0,9.16-9.16V597.71Z"/><polygon class="cls-1" points="1138.17 622.14 1165.65 608.4 1183.97 608.4 1156.49 622.14 1138.17 622.14"/><polygon class="cls-1" points="1092.37 645.04 1119.85 631.3 1138.17 631.3 1110.69 645.04 1092.37 645.04"/><path class="cls-1" d="M1408.4,737.4l91.6-45.8v36.64a9.16,9.16,0,0,1-9.16,9.16Z"/><path class="cls-1" d="M1356.93,709.92l-67.62,33.81V714.5a4.59,4.59,0,0,1,4.58-4.58h63m19.41-4.58h-82.45a9.16,9.16,0,0,0-9.16,9.16v36.65l91.61-45.81Z"/><polygon class="cls-1" points="1392.37 726.72 1364.88 740.46 1346.57 740.46 1374.05 726.72 1392.37 726.72"/><polygon class="cls-1" points="1438.17 703.82 1410.69 717.56 1392.37 717.56 1419.85 703.82 1438.17 703.82"/><path class="cls-1" d="M1238.93,707.63v9.16H1220.1a36.71,36.71,0,0,0-16.39,3.87l-30.32,15.17a36.7,36.7,0,0,1-16.39,3.86h-18.83l65.54-32.77a36.71,36.71,0,0,1,16.39-3.87h14.25A4.58,4.58,0,0,1,1238.93,707.63Z"/><polygon class="cls-1" points="1138.17 716.79 1165.65 703.05 1183.97 703.05 1156.49 716.79 1138.17 716.79"/><polygon class="cls-1" points="1092.37 739.7 1119.85 725.95 1138.17 725.95 1110.69 739.7 1092.37 739.7"/><path class="cls-1" d="M1037.4,735.11V726h18.84a36.69,36.69,0,0,0,16.38-3.86L1103,706.92a36.71,36.71,0,0,1,16.39-3.87h18.83l-65.55,32.78a36.69,36.69,0,0,1-16.38,3.86H1042A4.59,4.59,0,0,1,1037.4,735.11Z"/><path class="cls-1" d="M1493.13,613.74v9.16H1474.3a36.71,36.71,0,0,0-16.39,3.87l-30.33,15.16a36.51,36.51,0,0,1-16.38,3.87h-18.83L1457.91,613a36.58,36.58,0,0,1,16.39-3.87h14.25A4.58,4.58,0,0,1,1493.13,613.74Z"/><polygon class="cls-1" points="1392.37 622.9 1419.85 609.16 1438.17 609.16 1410.69 622.9 1392.37 622.9"/><polygon class="cls-1" points="1346.57 645.8 1374.05 632.06 1392.37 632.06 1364.88 645.8 1346.57 645.8"/><path class="cls-1" d="M1291.6,641.22v-9.16h18.83a36.58,36.58,0,0,0,16.39-3.87L1357.15,613a36.58,36.58,0,0,1,16.39-3.87h18.83l-65.55,32.77a36.58,36.58,0,0,1-16.39,3.87h-14.25A4.58,4.58,0,0,1,1291.6,641.22Z"/><path class="cls-1" d="M91.6,810.69,0,856.49V819.85a9.16,9.16,0,0,1,9.16-9.16Z"/><path class="cls-1" d="M210.69,804.36v29.23a4.59,4.59,0,0,1-4.58,4.58h-63l67.62-33.81m4.58-7.41-91.61,45.8h82.45a9.16,9.16,0,0,0,9.16-9.16V797Z"/><polygon class="cls-1" points="107.63 821.37 135.12 807.63 153.44 807.63 125.95 821.37 107.63 821.37"/><polygon class="cls-1" points="61.83 844.27 89.31 830.53 107.63 830.53 80.15 844.27 61.83 844.27"/><path class="cls-1" d="M377.86,936.64l91.61-45.8v36.64a9.17,9.17,0,0,1-9.16,9.16Z"/><path class="cls-1" d="M326.4,909.16,258.78,943V913.74a4.58,4.58,0,0,1,4.58-4.58h63m19.4-4.58H263.36a9.16,9.16,0,0,0-9.16,9.16v36.64l91.6-45.8Z"/><polygon class="cls-1" points="361.83 925.95 334.35 939.7 316.03 939.7 343.51 925.95 361.83 925.95"/><polygon class="cls-1" points="407.63 903.05 380.15 916.79 361.83 916.79 389.31 903.05 407.63 903.05"/><path class="cls-1" d="M208.4,906.87V916H189.57a36.58,36.58,0,0,0-16.39,3.87l-30.33,15.16a36.58,36.58,0,0,1-16.39,3.87H107.63l65.55-32.77a36.58,36.58,0,0,1,16.39-3.87h14.25A4.58,4.58,0,0,1,208.4,906.87Z"/><polygon class="cls-1" points="107.63 916.03 135.12 902.29 153.44 902.29 125.95 916.03 107.63 916.03"/><polygon class="cls-1" points="61.83 938.93 89.31 925.19 107.63 925.19 80.15 938.93 61.83 938.93"/><path class="cls-1" d="M6.87,934.35v-9.16H25.7a36.58,36.58,0,0,0,16.39-3.87l30.33-15.16a36.51,36.51,0,0,1,16.38-3.87h18.83L42.09,935.06a36.58,36.58,0,0,1-16.39,3.87H11.45A4.58,4.58,0,0,1,6.87,934.35Z"/><path class="cls-1" d="M462.6,813v9.16H443.76A36.57,36.57,0,0,0,427.38,826l-30.33,15.16A36.71,36.71,0,0,1,380.66,845H361.83l65.55-32.77a36.57,36.57,0,0,1,16.38-3.87H458A4.59,4.59,0,0,1,462.6,813Z"/><polygon class="cls-1" points="361.83 822.14 389.31 808.4 407.63 808.4 380.15 822.14 361.83 822.14"/><polygon class="cls-1" points="316.03 845.04 343.51 831.3 361.83 831.3 334.35 845.04 316.03 845.04"/><path class="cls-1" d="M261.07,840.46V831.3H279.9a36.71,36.71,0,0,0,16.39-3.87l30.32-15.16A36.58,36.58,0,0,1,343,808.4h18.83l-65.54,32.77A36.71,36.71,0,0,1,279.9,845H265.65A4.58,4.58,0,0,1,261.07,840.46Z"/><path class="cls-1" d="M606.87,810.69l-91.6,45.8V819.85a9.16,9.16,0,0,1,9.16-9.16Z"/><path class="cls-1" d="M726,804.36v29.23a4.59,4.59,0,0,1-4.58,4.58h-63L726,804.36m4.58-7.41-91.6,45.8h82.44a9.16,9.16,0,0,0,9.16-9.16V797Z"/><polygon class="cls-1" points="622.9 821.37 650.38 807.63 668.7 807.63 641.22 821.37 622.9 821.37"/><polygon class="cls-1" points="577.1 844.27 604.58 830.53 622.9 830.53 595.42 844.27 577.1 844.27"/><path class="cls-1" d="M893.13,936.64l91.6-45.8v36.64a9.16,9.16,0,0,1-9.16,9.16Z"/><path class="cls-1" d="M841.67,909.16,774.05,943V913.74a4.58,4.58,0,0,1,4.58-4.58h63m19.4-4.58H778.63a9.16,9.16,0,0,0-9.16,9.16v36.64l91.6-45.8Z"/><polygon class="cls-1" points="877.1 925.95 849.62 939.7 831.3 939.7 858.78 925.95 877.1 925.95"/><polygon class="cls-1" points="922.9 903.05 895.42 916.79 877.1 916.79 904.58 903.05 922.9 903.05"/><path class="cls-1" d="M723.66,906.87V916H704.83a36.51,36.51,0,0,0-16.38,3.87l-30.33,15.16a36.58,36.58,0,0,1-16.39,3.87H622.9l65.55-32.77a36.51,36.51,0,0,1,16.38-3.87h14.25A4.58,4.58,0,0,1,723.66,906.87Z"/><polygon class="cls-1" points="622.9 916.03 650.38 902.29 668.7 902.29 641.22 916.03 622.9 916.03"/><polygon class="cls-1" points="577.1 938.93 604.58 925.19 622.9 925.19 595.42 938.93 577.1 938.93"/><path class="cls-1" d="M522.14,934.35v-9.16H541a36.51,36.51,0,0,0,16.38-3.87l30.33-15.16a36.58,36.58,0,0,1,16.39-3.87H622.9l-65.55,32.77A36.51,36.51,0,0,1,541,938.93H526.72A4.58,4.58,0,0,1,522.14,934.35Z"/><path class="cls-1" d="M977.86,813v9.16H959A36.51,36.51,0,0,0,942.65,826l-30.33,15.16A36.71,36.71,0,0,1,895.93,845H877.1l65.55-32.77A36.51,36.51,0,0,1,959,808.4h14.25A4.58,4.58,0,0,1,977.86,813Z"/><polygon class="cls-1" points="877.1 822.14 904.58 808.4 922.9 808.4 895.42 822.14 877.1 822.14"/><polygon class="cls-1" points="831.3 845.04 858.78 831.3 877.1 831.3 849.62 845.04 831.3 845.04"/><path class="cls-1" d="M776.34,840.46V831.3h18.83a36.64,36.64,0,0,0,16.38-3.87l30.33-15.16a36.58,36.58,0,0,1,16.39-3.87H877.1l-65.55,32.77A36.64,36.64,0,0,1,795.17,845H780.92A4.58,4.58,0,0,1,776.34,840.46Z"/><path class="cls-1" d="M1122.14,810.69l-91.61,45.8V819.85a9.17,9.17,0,0,1,9.16-9.16Z"/><path class="cls-1" d="M1241.22,804.36v29.23a4.59,4.59,0,0,1-4.58,4.58h-63l67.62-33.81m4.58-7.41-91.6,45.8h82.44a9.16,9.16,0,0,0,9.16-9.16V797Z"/><polygon class="cls-1" points="1138.17 821.37 1165.65 807.63 1183.97 807.63 1156.49 821.37 1138.17 821.37"/><polygon class="cls-1" points="1092.37 844.27 1119.85 830.53 1138.17 830.53 1110.69 844.27 1092.37 844.27"/><path class="cls-1" d="M1408.4,936.64l91.6-45.8v36.64a9.16,9.16,0,0,1-9.16,9.16Z"/><path class="cls-1" d="M1356.93,909.16,1289.31,943V913.74a4.59,4.59,0,0,1,4.58-4.58h63m19.41-4.58h-82.45a9.16,9.16,0,0,0-9.16,9.16v36.64l91.61-45.8Z"/><polygon class="cls-1" points="1392.37 925.95 1364.88 939.7 1346.57 939.7 1374.05 925.95 1392.37 925.95"/><polygon class="cls-1" points="1438.17 903.05 1410.69 916.79 1392.37 916.79 1419.85 903.05 1438.17 903.05"/><path class="cls-1" d="M1238.93,906.87V916H1220.1a36.58,36.58,0,0,0-16.39,3.87l-30.32,15.16a36.58,36.58,0,0,1-16.39,3.87h-18.83l65.54-32.77a36.58,36.58,0,0,1,16.39-3.87h14.25A4.58,4.58,0,0,1,1238.93,906.87Z"/><polygon class="cls-1" points="1138.17 916.03 1165.65 902.29 1183.97 902.29 1156.49 916.03 1138.17 916.03"/><polygon class="cls-1" points="1092.37 938.93 1119.85 925.19 1138.17 925.19 1110.69 938.93 1092.37 938.93"/><path class="cls-1" d="M1037.4,934.35v-9.16h18.84a36.57,36.57,0,0,0,16.38-3.87L1103,906.16a36.58,36.58,0,0,1,16.39-3.87h18.83l-65.55,32.77a36.57,36.57,0,0,1-16.38,3.87H1042A4.59,4.59,0,0,1,1037.4,934.35Z"/><path class="cls-1" d="M1493.13,813v9.16H1474.3a36.58,36.58,0,0,0-16.39,3.87l-30.33,15.16A36.64,36.64,0,0,1,1411.2,845h-18.83l65.54-32.77a36.58,36.58,0,0,1,16.39-3.87h14.25A4.58,4.58,0,0,1,1493.13,813Z"/><polygon class="cls-1" points="1392.37 822.14 1419.85 808.4 1438.17 808.4 1410.69 822.14 1392.37 822.14"/><polygon class="cls-1" points="1346.57 845.04 1374.05 831.3 1392.37 831.3 1364.88 845.04 1346.57 845.04"/><path class="cls-1" d="M1291.6,840.46V831.3h18.83a36.71,36.71,0,0,0,16.39-3.87l30.33-15.16a36.58,36.58,0,0,1,16.39-3.87h18.83l-65.55,32.77a36.71,36.71,0,0,1-16.39,3.87h-14.25A4.58,4.58,0,0,1,1291.6,840.46Z"/><path class="cls-1" d="M91.6,1009.92,0,1055.73v-36.65a9.16,9.16,0,0,1,9.16-9.16Z"/><path class="cls-1" d="M210.69,1003.59v29.23a4.59,4.59,0,0,1-4.58,4.58h-63l67.62-33.81m4.58-7.41L123.66,1042h82.45a9.16,9.16,0,0,0,9.16-9.16V996.18Z"/><polygon class="cls-1" points="107.63 1020.61 135.12 1006.87 153.44 1006.87 125.95 1020.61 107.63 1020.61"/><polygon class="cls-1" points="61.83 1043.51 89.31 1029.77 107.63 1029.77 80.15 1043.51 61.83 1043.51"/><path class="cls-1" d="M377.86,1135.88l91.61-45.8v36.64a9.17,9.17,0,0,1-9.16,9.16Z"/><path class="cls-1" d="M326.4,1108.4l-67.62,33.81V1113a4.58,4.58,0,0,1,4.58-4.58h63m19.4-4.58H263.36a9.16,9.16,0,0,0-9.16,9.16v36.64l91.6-45.8Z"/><polygon class="cls-1" points="361.83 1125.19 334.35 1138.93 316.03 1138.93 343.51 1125.19 361.83 1125.19"/><polygon class="cls-1" points="407.63 1102.29 380.15 1116.03 361.83 1116.03 389.31 1102.29 407.63 1102.29"/><path class="cls-1" d="M208.4,1106.11v9.16H189.57a36.58,36.58,0,0,0-16.39,3.87l-30.33,15.16a36.71,36.71,0,0,1-16.39,3.87H107.63l65.55-32.77a36.58,36.58,0,0,1,16.39-3.87h14.25A4.58,4.58,0,0,1,208.4,1106.11Z"/><polygon class="cls-1" points="107.63 1115.27 135.12 1101.53 153.44 1101.53 125.95 1115.27 107.63 1115.27"/><polygon class="cls-1" points="61.83 1138.17 89.31 1124.43 107.63 1124.43 80.15 1138.17 61.83 1138.17"/><path class="cls-1" d="M6.87,1133.59v-9.16H25.7a36.71,36.71,0,0,0,16.39-3.87l30.33-15.16a36.51,36.51,0,0,1,16.38-3.87h18.83L42.09,1134.3a36.71,36.71,0,0,1-16.39,3.87H11.45A4.58,4.58,0,0,1,6.87,1133.59Z"/><path class="cls-1" d="M462.6,1012.21v9.16H443.76a36.7,36.7,0,0,0-16.38,3.87l-30.33,15.17a36.7,36.7,0,0,1-16.39,3.86H361.83l65.55-32.77a36.7,36.7,0,0,1,16.38-3.87H458A4.59,4.59,0,0,1,462.6,1012.21Z"/><polygon class="cls-1" points="361.83 1021.37 389.31 1007.63 407.63 1007.63 380.15 1021.37 361.83 1021.37"/><polygon class="cls-1" points="316.03 1044.28 343.51 1030.53 361.83 1030.53 334.35 1044.28 316.03 1044.28"/><path class="cls-1" d="M261.07,1039.69v-9.16H279.9a36.7,36.7,0,0,0,16.39-3.86l30.32-15.17a36.71,36.71,0,0,1,16.39-3.87h18.83l-65.54,32.78a36.7,36.7,0,0,1-16.39,3.86H265.65A4.58,4.58,0,0,1,261.07,1039.69Z"/><path class="cls-1" d="M606.87,1009.92l-91.6,45.81v-36.65a9.16,9.16,0,0,1,9.16-9.16Z"/><path class="cls-1" d="M726,1003.59v29.23a4.58,4.58,0,0,1-4.58,4.58h-63L726,1003.59m4.58-7.41-91.6,45.8h82.44a9.16,9.16,0,0,0,9.16-9.16V996.18Z"/><polygon class="cls-1" points="622.9 1020.61 650.38 1006.87 668.7 1006.87 641.22 1020.61 622.9 1020.61"/><polygon class="cls-1" points="577.1 1043.51 604.58 1029.77 622.9 1029.77 595.42 1043.51 577.1 1043.51"/><path class="cls-1" d="M893.13,1135.88l91.6-45.8v36.64a9.16,9.16,0,0,1-9.16,9.16Z"/><path class="cls-1" d="M841.67,1108.4l-67.62,33.81V1113a4.58,4.58,0,0,1,4.58-4.58h63m19.4-4.58H778.63a9.16,9.16,0,0,0-9.16,9.16v36.64l91.6-45.8Z"/><polygon class="cls-1" points="877.1 1125.19 849.62 1138.93 831.3 1138.93 858.78 1125.19 877.1 1125.19"/><polygon class="cls-1" points="922.9 1102.29 895.42 1116.03 877.1 1116.03 904.58 1102.29 922.9 1102.29"/><path class="cls-1" d="M723.66,1106.11v9.16H704.83a36.51,36.51,0,0,0-16.38,3.87l-30.33,15.16a36.71,36.71,0,0,1-16.39,3.87H622.9l65.55-32.77a36.51,36.51,0,0,1,16.38-3.87h14.25A4.58,4.58,0,0,1,723.66,1106.11Z"/><polygon class="cls-1" points="622.9 1115.27 650.38 1101.53 668.7 1101.53 641.22 1115.27 622.9 1115.27"/><polygon class="cls-1" points="577.1 1138.17 604.58 1124.43 622.9 1124.43 595.42 1138.17 577.1 1138.17"/><path class="cls-1" d="M522.14,1133.59v-9.16H541a36.64,36.64,0,0,0,16.38-3.87l30.33-15.16a36.58,36.58,0,0,1,16.39-3.87H622.9l-65.55,32.77a36.64,36.64,0,0,1-16.38,3.87H526.72A4.58,4.58,0,0,1,522.14,1133.59Z"/><path class="cls-1" d="M977.86,1012.21v9.16H959a36.64,36.64,0,0,0-16.38,3.87l-30.33,15.17a36.7,36.7,0,0,1-16.39,3.86H877.1l65.55-32.77a36.64,36.64,0,0,1,16.38-3.87h14.25A4.58,4.58,0,0,1,977.86,1012.21Z"/><polygon class="cls-1" points="877.1 1021.37 904.58 1007.63 922.9 1007.63 895.42 1021.37 877.1 1021.37"/><polygon class="cls-1" points="831.3 1044.28 858.78 1030.53 877.1 1030.53 849.62 1044.28 831.3 1044.28"/><path class="cls-1" d="M776.34,1039.69v-9.16h18.83a36.63,36.63,0,0,0,16.38-3.86l30.33-15.17a36.71,36.71,0,0,1,16.39-3.87H877.1l-65.55,32.78a36.63,36.63,0,0,1-16.38,3.86H780.92A4.58,4.58,0,0,1,776.34,1039.69Z"/><path class="cls-1" d="M1122.14,1009.92l-91.61,45.81v-36.65a9.17,9.17,0,0,1,9.16-9.16Z"/><path class="cls-1" d="M1241.22,1003.59v29.23a4.58,4.58,0,0,1-4.58,4.58h-63l67.62-33.81m4.58-7.41-91.6,45.8h82.44a9.16,9.16,0,0,0,9.16-9.16V996.18Z"/><polygon class="cls-1" points="1138.17 1020.61 1165.65 1006.87 1183.97 1006.87 1156.49 1020.61 1138.17 1020.61"/><polygon class="cls-1" points="1092.37 1043.51 1119.85 1029.77 1138.17 1029.77 1110.69 1043.51 1092.37 1043.51"/><path class="cls-1" d="M1408.4,1135.88l91.6-45.8v36.64a9.16,9.16,0,0,1-9.16,9.16Z"/><path class="cls-1" d="M1356.93,1108.4l-67.62,33.81V1113a4.59,4.59,0,0,1,4.58-4.58h63m19.41-4.58h-82.45a9.16,9.16,0,0,0-9.16,9.16v36.64l91.61-45.8Z"/><polygon class="cls-1" points="1392.37 1125.19 1364.88 1138.93 1346.57 1138.93 1374.05 1125.19 1392.37 1125.19"/><polygon class="cls-1" points="1438.17 1102.29 1410.69 1116.03 1392.37 1116.03 1419.85 1102.29 1438.17 1102.29"/><path class="cls-1" d="M1238.93,1106.11v9.16H1220.1a36.58,36.58,0,0,0-16.39,3.87l-30.32,15.16a36.71,36.71,0,0,1-16.39,3.87h-18.83l65.54-32.77a36.58,36.58,0,0,1,16.39-3.87h14.25A4.58,4.58,0,0,1,1238.93,1106.11Z"/><polygon class="cls-1" points="1138.17 1115.27 1165.65 1101.53 1183.97 1101.53 1156.49 1115.27 1138.17 1115.27"/><polygon class="cls-1" points="1092.37 1138.17 1119.85 1124.43 1138.17 1124.43 1110.69 1138.17 1092.37 1138.17"/><path class="cls-1" d="M1037.4,1133.59v-9.16h18.84a36.7,36.7,0,0,0,16.38-3.87L1103,1105.4a36.58,36.58,0,0,1,16.39-3.87h18.83l-65.55,32.77a36.7,36.7,0,0,1-16.38,3.87H1042A4.59,4.59,0,0,1,1037.4,1133.59Z"/><path class="cls-1" d="M1493.13,1012.21v9.16H1474.3a36.71,36.71,0,0,0-16.39,3.87l-30.33,15.17a36.63,36.63,0,0,1-16.38,3.86h-18.83l65.54-32.77a36.71,36.71,0,0,1,16.39-3.87h14.25A4.58,4.58,0,0,1,1493.13,1012.21Z"/><polygon class="cls-1" points="1392.37 1021.37 1419.85 1007.63 1438.17 1007.63 1410.69 1021.37 1392.37 1021.37"/><polygon class="cls-1" points="1346.57 1044.28 1374.05 1030.53 1392.37 1030.53 1364.88 1044.28 1346.57 1044.28"/><path class="cls-1" d="M1291.6,1039.69v-9.16h18.83a36.7,36.7,0,0,0,16.39-3.86l30.33-15.17a36.71,36.71,0,0,1,16.39-3.87h18.83l-65.55,32.78a36.7,36.7,0,0,1-16.39,3.86h-14.25A4.58,4.58,0,0,1,1291.6,1039.69Z"/></g></g></svg>