<svg xmlns="http://www.w3.org/2000/svg" viewBox="0 0 799.3 58.83"><defs><style>.cls-1{fill:#5927e5;}</style></defs><g id="Layer_2" data-name="Layer 2"><g id="Layer_1-2" data-name="Layer 1"><path class="cls-1" d="M0,57.85V1H22.74A28.56,28.56,0,0,1,37.11,4.51a25,25,0,0,1,9.72,9.91,30.64,30.64,0,0,1,3.51,15,30.58,30.58,0,0,1-3.51,15,24.94,24.94,0,0,1-9.72,9.92,28.66,28.66,0,0,1-14.37,3.53ZM11.65,47.13H22.17A16.84,16.84,0,0,0,30.85,45a14.55,14.55,0,0,0,5.72-6.17,20.49,20.49,0,0,0,2-9.39,20.39,20.39,0,0,0-2-9.42,14.65,14.65,0,0,0-5.72-6.14,16.93,16.93,0,0,0-8.68-2.15H11.65Z"/><path class="cls-1" d="M89.52,58.83q-10.67,0-16.66-6.75t-6-19.34V1H78.51V32.42q0,8,2.93,11.66a9.9,9.9,0,0,0,8.15,3.61,10,10,0,0,0,8.22-3.61q2.93-3.61,2.93-11.66V1h11.37V32.74q0,12.6-6,19.34T89.52,58.83Z"/><path class="cls-1" d="M131.84,57.85V1H156.3Q165.74,1,170.49,5a13.41,13.41,0,0,1,4.76,10.72,15,15,0,0,1-1.94,7.76A13.08,13.08,0,0,1,168,28.6a16.3,16.3,0,0,1-7.69,1.79L161.66,27A18.56,18.56,0,0,1,170,28.76a13.59,13.59,0,0,1,5.68,5.2,15.8,15.8,0,0,1,2.08,8.37q0,7.32-5.08,11.42t-14.94,4.1Zm11.52-9.91h13.58q4.44,0,6.79-1.71A6.07,6.07,0,0,0,166.09,41a6.15,6.15,0,0,0-2.36-5.36q-2.35-1.71-6.79-1.71H142.5V24.29h12.37a10.75,10.75,0,0,0,6.47-1.66,5.9,5.9,0,0,0,2.25-5.08,5.81,5.81,0,0,0-2.25-5,11,11,0,0,0-6.47-1.62H143.36Z"/><path class="cls-1" d="M206.28,47.29h27.24V57.85H194.76V1h37.83V11.54H206.28Zm-.86-23.48h24.09V34.13H205.42Z"/><path class="cls-1" d="M251,57.85V1h9.58l21.31,40.13h-5.08L297.65,1h9.65V57.85H296.51l-.14-37.94h2.14L281.64,51.76h-5.15L259.4,19.91h2.36V57.85Z"/><path class="cls-1" d="M379.88,58.83A27.27,27.27,0,0,1,369,56.67a25,25,0,0,1-8.66-6.13,28.91,28.91,0,0,1-5.68-9.35,32.85,32.85,0,0,1-2-11.78,32.89,32.89,0,0,1,2-11.78,28.21,28.21,0,0,1,5.76-9.34,25.58,25.58,0,0,1,8.72-6.14,29.51,29.51,0,0,1,23,.37,24.12,24.12,0,0,1,9,7.31l-7.37,7.8a18.56,18.56,0,0,0-6-4.91,15.79,15.79,0,0,0-7.08-1.59A16,16,0,0,0,374,12.47a15.17,15.17,0,0,0-5.18,3.78A17,17,0,0,0,365.48,22a21.91,21.91,0,0,0-1.18,7.39,21.74,21.74,0,0,0,1.18,7.27,16.77,16.77,0,0,0,3.36,5.81A15.63,15.63,0,0,0,374,46.31a15.27,15.27,0,0,0,6.54,1.38,17.77,17.77,0,0,0,6.68-1.3,19.45,19.45,0,0,0,6.33-4.3l6.58,9.5A28.51,28.51,0,0,1,390.61,57,33.06,33.06,0,0,1,379.88,58.83Zm9.66-8.94V28.52h10.58V51.59Z"/><path class="cls-1" d="M419.07,57.85V1h21.66a25.24,25.24,0,0,1,11.58,2.47,17.79,17.79,0,0,1,7.51,7.11,21.81,21.81,0,0,1,2.65,11,21.73,21.73,0,0,1-2.65,11,17.28,17.28,0,0,1-7.51,7,25.9,25.9,0,0,1-11.58,2.4h-15.3l5.29-5.69V57.85ZM430.72,37.7l-5.29-6.26h14.66c3.52,0,6.19-.86,8-2.6a9.64,9.64,0,0,0,2.71-7.31q0-4.71-2.71-7.27t-8-2.56H425.43l5.29-6.26ZM451,57.85,438.37,37.21h12.44L463.4,57.85Z"/><path class="cls-1" d="M473.33,57.85,495.57,1H507l22.45,56.87H517.31L498.93,7.64h4.65L485.2,57.85Zm11.23-12.19,2.93-10h25.88l3,10Z"/><path class="cls-1" d="M542.9,57.85V1h21.67a25.24,25.24,0,0,1,11.58,2.47,17.84,17.84,0,0,1,7.51,7.11,21.81,21.81,0,0,1,2.64,11,21.73,21.73,0,0,1-2.64,11,18.09,18.09,0,0,1-7.51,7.11,24.86,24.86,0,0,1-11.58,2.52h-15.3l5.29-5.93V57.85ZM554.56,37.7l-5.29-6.26h14.65c3.53,0,6.2-.86,8-2.6a9.64,9.64,0,0,0,2.72-7.31q0-4.71-2.72-7.27t-8-2.56H549.27l5.29-6.26Z"/><path class="cls-1" d="M615.05,57.85H603.39V1h11.66Zm23.52-23.32H614.12V23.4h24.45ZM637.71,1h11.58V57.85H637.71Z"/><path class="cls-1" d="M669.39,57.85V1H681V57.85Z"/><path class="cls-1" d="M725,58.83a26.69,26.69,0,0,1-10.76-2.16,25,25,0,0,1-8.61-6.13A28.76,28.76,0,0,1,700,41.19a32.85,32.85,0,0,1-2-11.78,32.89,32.89,0,0,1,2-11.78,28.62,28.62,0,0,1,5.72-9.34,25.5,25.5,0,0,1,8.65-6.14,28.25,28.25,0,0,1,22.56.41,23.39,23.39,0,0,1,8.87,7.52l-7.51,7.8a17.44,17.44,0,0,0-5.68-5,14.4,14.4,0,0,0-6.9-1.71,15.34,15.34,0,0,0-6.44,1.34,15.08,15.08,0,0,0-5.08,3.78A17.55,17.55,0,0,0,710.82,22a21.91,21.91,0,0,0-1.18,7.39,22,22,0,0,0,1.18,7.4,17.55,17.55,0,0,0,3.32,5.77,15,15,0,0,0,11.52,5.11,14.2,14.2,0,0,0,6.9-1.74,18.06,18.06,0,0,0,5.68-5.08l7.51,7.8a23.86,23.86,0,0,1-8.87,7.56A26.59,26.59,0,0,1,725,58.83Z"/><path class="cls-1" d="M778.14,58.83A36.55,36.55,0,0,1,766.59,57a25.61,25.61,0,0,1-8.9-4.76l3.93-9.91a26.13,26.13,0,0,0,7.58,4.27,25.21,25.21,0,0,0,8.94,1.66,15.78,15.78,0,0,0,5.54-.81,6.87,6.87,0,0,0,3.11-2.15,5.15,5.15,0,0,0,1-3.13,4.52,4.52,0,0,0-1.58-3.62A12.25,12.25,0,0,0,782,36.36q-2.61-.86-5.68-1.63t-6.19-1.86a23.94,23.94,0,0,1-5.72-2.93,13.1,13.1,0,0,1-4.14-4.79,16,16,0,0,1-1.54-7.44,17.6,17.6,0,0,1,2.29-8.89,16.21,16.21,0,0,1,7-6.42A25.64,25.64,0,0,1,779.78,0a34.06,34.06,0,0,1,9.33,1.3,25.7,25.7,0,0,1,8,3.74L793.51,15a27.29,27.29,0,0,0-6.94-3.29,23.4,23.4,0,0,0-6.86-1.1,14.7,14.7,0,0,0-5.51.86,6.44,6.44,0,0,0-3,2.31,5.81,5.81,0,0,0-1,3.25,4.62,4.62,0,0,0,1.57,3.66,10.91,10.91,0,0,0,4.15,2.15q2.57.78,5.72,1.54a60.21,60.21,0,0,1,6.22,1.91,26.15,26.15,0,0,1,5.65,2.89,13.11,13.11,0,0,1,4.18,4.71,15.31,15.31,0,0,1,1.61,7.35A17.17,17.17,0,0,1,797,50a16.87,16.87,0,0,1-7.05,6.42A25.59,25.59,0,0,1,778.14,58.83Z"/></g></g></svg>