<svg xmlns="http://www.w3.org/2000/svg" viewBox="0 0 40 40"><g id="Layer_2" data-name="Layer 2"><g id="ELEMENTS"><path d="M20.1,16.17A3.83,3.83,0,1,0,23.92,20,3.84,3.84,0,0,0,20.1,16.17Z"/><path d="M24.84,10.16H15.16a5,5,0,0,0-5,5v9.68a5,5,0,0,0,5,5h9.68a5,5,0,0,0,5-5V15.16A5,5,0,0,0,24.84,10.16ZM20.1,26a6,6,0,1,1,6-6A6,6,0,0,1,20.1,26Zm6.32-10.92a1.42,1.42,0,1,1,1.42-1.42A1.42,1.42,0,0,1,26.42,15.05Z"/><path d="M20,0A20,20,0,1,0,40,20,20,20,0,0,0,20,0ZM32.12,24.84a7.28,7.28,0,0,1-7.28,7.28H15.16a7.28,7.28,0,0,1-7.28-7.28V15.16a7.28,7.28,0,0,1,7.28-7.28h9.68a7.28,7.28,0,0,1,7.28,7.28Z"/></g></g></svg>