<svg xmlns="http://www.w3.org/2000/svg" viewBox="0 0 40 40"><g id="Layer_2" data-name="Layer 2"><g id="ELEMENTS"><path d="M20,0A20,20,0,1,0,40,20,20,20,0,0,0,20,0Zm7.62,22.89c-2.57,3.18-6.73,3.39-8.65,1.44a5.37,5.37,0,0,1-.41-.51l-.06.2c-.92,3.61-1,4.41-2,6.09A19.11,19.11,0,0,1,15,32.38c-.07.08-.13.19-.25.16s-.15-.15-.17-.26a20.37,20.37,0,0,1-.2-3.31c0-1.44.23-1.94,2.09-9.76a.53.53,0,0,0,0-.33,5.45,5.45,0,0,1-.15-3.65c.84-2.67,3.87-2.88,4.4-.67.32,1.36-.54,3.14-1.2,5.77-.55,2.18,2,3.72,4.2,2.14,2-1.47,2.8-5,2.65-7.46-.29-4.95-5.73-6-9.18-4.43-3.95,1.83-4.85,6.73-3.06,9,.22.28.4.45.32.74-.11.45-.21.9-.34,1.35a.47.47,0,0,1-.7.31,4,4,0,0,1-1.65-1.23c-1.52-1.88-2-5.59,0-8.73A10.49,10.49,0,0,1,21.9,7.53a8.56,8.56,0,0,1,7.88,7.07A11.78,11.78,0,0,1,27.62,22.89Z"/></g></g></svg>