<svg xmlns="http://www.w3.org/2000/svg" viewBox="0 0 40 40"><g id="Layer_2" data-name="Layer 2"><g id="ELEMENTS"><path d="M20.41,9.62a9.62,9.62,0,0,0-8.22,14.63l.25.41-1,3.59,3.61-1,.41.24a9.63,9.63,0,1,0,4.91-17.9Zm5.66,13.27a2.87,2.87,0,0,1-2.15,1.6,4.6,4.6,0,0,1-2.37-.37,10.31,10.31,0,0,1-2-1,11.7,11.7,0,0,1-3.27-3A12.6,12.6,0,0,1,15.49,19a6.31,6.31,0,0,1-.73-1.66,3.75,3.75,0,0,1-.09-.75,3,3,0,0,1,1-2.37A1.34,1.34,0,0,1,17.18,14a3.14,3.14,0,0,1,1,1.49,2.46,2.46,0,0,1,.32,1.34,2.66,2.66,0,0,1-.7,1.14.46.46,0,0,0-.06.64,7.64,7.64,0,0,0,3.84,3.29.42.42,0,0,0,.55-.11c.29-.36.57-1.05,1-1.23a2,2,0,0,1,1.7.38c.46.28,1.22.61,1.34,1.17A1.36,1.36,0,0,1,26.07,22.89Z"/><path d="M20,0A20,20,0,1,0,40,20,20,20,0,0,0,20,0Zm.41,31.13a11.88,11.88,0,0,1-5.64-1.44L8.3,31.42,10,25a11.87,11.87,0,1,1,10.38,6.14Z"/></g></g></svg>